<?xml version="1.0" encoding="utf-8"?>
<!-- Generator: Adobe Illustrator 16.0.0, SVG Export Plug-In . SVG Version: 6.00 Build 0)  -->
<!DOCTYPE svg PUBLIC "-//W3C//DTD SVG 1.1//EN" "http://www.w3.org/Graphics/SVG/1.1/DTD/svg11.dtd">
<svg version="1.1" xmlns="http://www.w3.org/2000/svg" xmlns:xlink="http://www.w3.org/1999/xlink" x="0px" y="0px" width="300px"
	 height="81.664px" viewBox="0 0 300 81.664" enable-background="new 0 0 300 81.664" xml:space="preserve">
<g id="レイヤー_2">
</g>
<g id="レイヤー_1">
	<g>
		<path fill="#CC2323" d="M-359.139,70.158c-0.734-2.206-1.768,0.289-9.789-1.764c-8.021-2.052-13.043-8.763-13.043-8.763
			s8.449-8.977,9.261-13.57c0.325-1.841-3.774-0.365-5.251,0.373c-2.146,1.072-3.608,4.92-7.305,8.644
			c-2.877-2.343-5.451-13.817-5.451-13.817s16.158-16.749,20.492-21.856c4.333-5.108,6.428-14.084,2.021-17.329
			c-4.08-3.004-11.954,0.655-19.785,6.39c-9.078,6.647-13.691,14.959-14.219,18.716c-1.123,7.964,0.399,16.55,0.399,16.55
			s-9.88,8.848-12.749,12.202c-2.869,3.352-6.609,10.254-4.32,12.399c2.432,2.275,9.074,2.691,15.729,1.564
			c5.763-0.976,10.988-3.524,10.988-3.524s9.689,11.438,22.071,11.438C-362.875,77.811-358.404,72.365-359.139,70.158z
			 M-373.883,7.266c2.952,5.104-8.516,17.619-15.902,24.87c-2.73,2.681-2.222,1.854-2.234,0.467
			c-0.057-5.892-0.313-13.099,5.918-21.078C-382.455,6.857-374.486,6.223-373.883,7.266z M-394.545,62.483
			c0,0-13.293,5.031-14.589,0.903c-1.401-4.462,8.5-12.457,8.5-12.457s1.401,3.959,2.706,6.396
			C-396.611,59.777-394.545,62.483-394.545,62.483z"/>
		<path fill="#CE3030" d="M-334.01,67.011V47.108c0-2.444,0.578-4.128,1.751-5.054c1.161-0.924,2.138-1.38,2.913-1.38
			s1.668,0.456,2.676,1.38c1.005,0.926,1.508,2.61,1.508,5.054v19.902h11.861V47.108c0-2.483,0.492-4.176,1.473-5.077
			c0.984-0.905,1.889-1.357,2.707-1.357c0.732,0,1.627,0.452,2.678,1.357c1.051,0.901,1.578,2.594,1.578,5.077v19.902h11.795V47.108
			c0-2.802-1.597-4.777-4.801-5.934c-3.195-1.153-6.943-1.73-11.25-1.73c-4.293-0.132-7.654,0.942-10.079,3.248
			c-2.514-2.306-5.894-3.452-10.146-3.452c-3.105,0.39-4.664,0.992-4.664,1.803v-1.645l-11.383,0.052v7.658v19.902H-334.01z"/>
		<path fill="#CE3030" d="M-243.063,43.282c-4.186-2.358-9.132-3.534-14.848-3.534c-5.808,0-10.788,1.176-14.947,3.534
			c-4.157,2.354-6.242,5.871-6.242,10.549c0,4.854,2.093,8.387,6.276,10.581c4.187,2.199,9.152,3.298,14.913,3.298
			c5.67,0,10.612-1.099,14.817-3.298c4.201-2.194,6.307-5.727,6.307-10.581C-236.787,49.153-238.882,45.637-243.063,43.282
			 M-251.742,63.555c-1.96,1.979-4.021,2.971-6.169,2.971c-2.232,0-4.347-0.98-6.307-2.944c-1.969-1.972-2.952-5.22-2.952-9.751
			c0-4.359,0.991-7.582,2.982-9.667c1.995-2.091,4.082-3.142,6.276-3.142c2.148,0,4.209,1.051,6.169,3.142
			c1.968,2.085,2.952,5.308,2.952,9.667C-248.79,58.328-249.774,61.568-251.742,63.555"/>
		<path fill="#CE3030" d="M-186.175,42.37c-4.116-1.949-9.052-2.925-14.81-2.925c-3.201,0-6.314,0.375-9.332,1.115v-1.115h-11.8
			v27.563h11.8V50.083c0.093-2.906,1.123-5.208,3.091-6.884c1.968-1.689,4.043-2.531,6.241-2.531c2.191,0,4.267,0.841,6.234,2.531
			c1.968,1.676,2.902,3.978,2.813,6.884v16.923h11.792V50.083C-180.052,46.892-182.063,44.322-186.175,42.37"/>
		<path fill="#CE3030" d="M-138.211,39.646v2.342c-2.556-1.493-5.619-2.275-9.179-2.342c-5.815,0-10.77,1.043-14.882,3.136
			c-4.12,2.091-6.177,5.688-6.177,10.792c0,5.11,2.071,8.677,6.207,10.714c4.14,2.037,9.086,3.059,14.852,3.059
			c4.701,0,8.633-0.869,11.784-2.606c2.329,1.737,6.315,2.606,11.938,2.606v-1.333c-1.737,0-2.606-0.949-2.606-2.867v-9.573V39.646
			H-138.211z M-153.704,43.79c1.964-1.841,4.074-2.765,6.314-2.765c2.191,0,4.267,0.924,6.234,2.765
			c1.968,1.843,2.944,5.106,2.944,9.786c0,4.68-0.977,7.924-2.944,9.734c-1.968,1.803-4.043,2.706-6.234,2.706
			c-2.24,0-4.351-0.903-6.314-2.706c-1.965-1.81-2.948-5.054-2.948-9.734C-156.652,48.896-155.669,45.633-153.704,43.79"/>
		<path fill="#C11E1E" d="M-410.119,90.552c0.149,1.484,0.434,3.232,0.855,5.262c0.42,2.03,0.957,4.197,1.6,6.503l1.524,0.308
			l-0.138,0.399c-0.377-0.03-0.76-0.054-1.143-0.069c-0.38-0.016-0.83-0.023-1.353-0.023c-0.405,0-0.83,0.007-1.272,0.023
			c-0.439,0.015-0.889,0.039-1.349,0.069l0.149-0.399l1.439-0.3c-0.042-0.446-0.113-0.977-0.207-1.595
			c-0.098-0.619-0.229-1.372-0.395-2.271h-4.326c-0.451,0.892-0.811,1.649-1.074,2.268c-0.263,0.623-0.455,1.149-0.578,1.591
			l1.543,0.308l-0.142,0.399c-0.335-0.03-0.669-0.054-0.999-0.069c-0.331-0.016-0.721-0.023-1.165-0.023
			c-0.528,0-0.965,0.007-1.314,0.023c-0.348,0.015-0.687,0.039-1.021,0.069l0.119-0.399l1.412-0.308
			c1.9-3.052,3.396-5.581,4.496-7.595c1.097-2.01,1.645-3.221,1.645-3.621c0-0.02-0.004-0.035-0.008-0.046
			c-0.008-0.011-0.016-0.023-0.02-0.027L-410.119,90.552z M-411.682,92.624c-0.527,0.93-1.022,1.837-1.488,2.713
			c-0.463,0.876-0.896,1.722-1.289,2.544h3.922c-0.128-0.699-0.285-1.46-0.463-2.271C-411.176,94.792-411.401,93.8-411.682,92.624"
			/>
		<path fill="#C11E1E" d="M-390.146,90.794c0,1.146,0.127,2.606,0.383,4.382c0.252,1.768,0.623,3.744,1.106,5.903
			c0.823-1.749,1.542-3.417,2.152-5.012c0.609-1.591,1.098-3.067,1.465-4.428l-1.524-0.308l0.117-0.4
			c0.412,0.05,0.796,0.085,1.155,0.116c0.361,0.023,0.673,0.034,0.94,0.034c0.354,0,0.983-0.034,1.885-0.111
			c0.221-0.019,0.383-0.031,0.484-0.039l-0.117,0.4l-1.49,0.308c-1.18,2.252-2.187,4.328-3.034,6.227
			c-0.841,1.898-1.446,3.459-1.821,4.681l-1.701,0.63c-0.062-0.814-0.215-1.991-0.459-3.524s-0.556-3.29-0.927-5.262
			c-0.853,1.599-1.597,3.086-2.228,4.458c-0.628,1.376-1.131,2.602-1.51,3.682l-1.653,0.646c-0.19-1.783-0.438-3.647-0.755-5.588
			c-0.315-1.937-0.693-3.92-1.134-5.95l-1.517-0.308l0.131-0.4c0.463,0.05,0.905,0.085,1.326,0.116
			c0.417,0.023,0.795,0.034,1.13,0.034c0.39,0,1.082-0.034,2.081-0.111c0.229-0.019,0.398-0.031,0.504-0.039l-0.129,0.4
			l-1.461,0.308c0.057,1.314,0.196,2.763,0.425,4.343c0.233,1.572,0.544,3.282,0.942,5.116c1.581-3.221,2.576-5.389,2.994-6.511
			c0.412-1.118,0.622-2.021,0.622-2.709c0-0.084,0-0.169-0.004-0.246c-0.004-0.084-0.007-0.162-0.017-0.246L-390.146,90.794z"/>
		<path fill="#C11E1E" d="M-379.536,94.281c0.634,0,1.106,0.204,1.43,0.611c0.319,0.408,0.477,1.007,0.477,1.807
			c0,0.792-0.123,1.549-0.367,2.283c-0.244,0.734-0.59,1.383-1.038,1.952c-0.521,0.646-1.125,1.161-1.815,1.564
			c-0.692,0.396-1.326,0.596-1.905,0.596c-0.624,0-1.093-0.192-1.404-0.584c-0.314-0.392-0.473-0.98-0.473-1.776
			c0-0.969,0.165-1.883,0.5-2.752c0.33-0.876,0.783-1.583,1.362-2.137c0.519-0.477,1.07-0.857,1.653-1.138
			C-380.535,94.423-380.008,94.281-379.536,94.281 M-379.508,97.294c0-0.68-0.105-1.191-0.314-1.538
			c-0.214-0.342-0.523-0.519-0.933-0.519c-0.618,0-1.114,0.446-1.479,1.322c-0.371,0.88-0.556,2.068-0.556,3.575
			c0,0.646,0.103,1.138,0.312,1.476c0.207,0.331,0.512,0.5,0.905,0.5c0.612,0,1.112-0.438,1.495-1.322
			C-379.697,99.911-379.508,98.747-379.508,97.294"/>
		<path fill="#C11E1E" d="M-370.637,96.802c-0.098-0.196-0.201-0.342-0.304-0.426c-0.102-0.088-0.217-0.131-0.346-0.131
			c-0.492,0-1.044,0.607-1.657,1.814c-0.614,1.207-1.047,2.675-1.303,4.397c-0.252,0.092-0.586,0.223-1.001,0.392
			c-0.407,0.166-0.685,0.277-0.822,0.334c0.319-1.518,0.571-2.91,0.761-4.186c0.188-1.276,0.283-2.129,0.283-2.556
			c0-0.157-0.023-0.276-0.072-0.357c-0.045-0.084-0.113-0.126-0.207-0.126c-0.082,0-0.205,0.065-0.379,0.2
			c-0.168,0.134-0.361,0.315-0.578,0.542l-0.278-0.258c0.636-0.695,1.199-1.218,1.687-1.576c0.484-0.35,0.895-0.526,1.221-0.526
			c0.181,0,0.312,0.062,0.391,0.181c0.082,0.123,0.121,0.315,0.121,0.58c0,0.234-0.043,0.661-0.133,1.269
			c-0.09,0.611-0.209,1.288-0.359,2.033l0.037,0.019c0.656-1.272,1.291-2.271,1.904-2.998c0.611-0.722,1.118-1.083,1.527-1.083
			c0.203,0,0.369,0.084,0.492,0.246c0.125,0.162,0.188,0.385,0.188,0.654c0,0.238-0.102,0.492-0.299,0.75
			C-369.96,96.252-370.252,96.521-370.637,96.802"/>
		<path fill="#C11E1E" d="M-362.194,89.649c-0.315-0.169-0.608-0.3-0.882-0.392c-0.275-0.092-0.516-0.138-0.729-0.138
			c-0.542,0-0.971,0.261-1.281,0.78c-0.313,0.519-0.65,1.691-1.025,3.524c-0.334,1.676-0.605,3.232-0.811,4.678
			c-0.207,1.441-0.313,2.356-0.313,2.756c0,0.131,0.022,0.234,0.061,0.315c0.041,0.081,0.091,0.123,0.154,0.123
			c0.086,0,0.177-0.035,0.276-0.1c0.095-0.062,0.274-0.231,0.542-0.496l0.289,0.265c-0.561,0.669-1.067,1.184-1.532,1.549
			c-0.462,0.365-0.827,0.545-1.101,0.545c-0.188,0-0.331-0.073-0.439-0.215c-0.102-0.15-0.157-0.358-0.157-0.623
			c0-0.346,0.052-0.903,0.149-1.668c0.099-0.765,0.24-1.68,0.43-2.748c0.265-1.553,0.509-2.771,0.729-3.644
			c0.221-0.876,0.461-1.615,0.721-2.222c0.465-1.123,1.121-2.057,1.963-2.806c0.842-0.746,1.634-1.123,2.37-1.123
			c0.3,0,0.526,0.069,0.685,0.2c0.157,0.131,0.236,0.308,0.236,0.546c0,0.162-0.027,0.319-0.083,0.473
			C-361.998,89.38-362.084,89.519-362.194,89.649"/>
		<path fill="#C11E1E" d="M-359.425,98.966c-0.802,1.214-1.642,2.206-2.51,2.967c-0.866,0.765-1.548,1.146-2.043,1.146
			c-0.226,0-0.394-0.108-0.507-0.323c-0.115-0.211-0.176-0.53-0.176-0.953c0-2.137,0.529-3.87,1.588-5.196
			c1.059-1.33,2.51-2.076,4.356-2.252c0.369-1.845,1.052-3.367,2.039-4.551c0.991-1.195,2.023-1.791,3.102-1.791
			c0.256,0,0.456,0.069,0.602,0.2c0.146,0.139,0.218,0.315,0.218,0.546c0,0.15-0.029,0.296-0.083,0.438
			c-0.056,0.139-0.139,0.285-0.24,0.435c-0.352-0.173-0.649-0.296-0.905-0.38c-0.252-0.085-0.48-0.131-0.678-0.131
			c-0.551,0-0.98,0.265-1.286,0.792c-0.308,0.526-0.661,1.891-1.056,4.082c-0.299,1.63-0.539,3.09-0.721,4.382
			c-0.184,1.299-0.274,2.137-0.274,2.518c0,0.181,0.02,0.315,0.058,0.403c0.041,0.084,0.107,0.127,0.194,0.127
			c0.067,0,0.146-0.035,0.232-0.104c0.087-0.073,0.248-0.238,0.492-0.5l0.306,0.261c-0.508,0.619-1,1.107-1.469,1.465
			c-0.471,0.354-0.846,0.534-1.124,0.534c-0.19,0-0.331-0.073-0.435-0.223c-0.102-0.15-0.151-0.369-0.151-0.649
			c0-0.277,0.034-0.669,0.109-1.188C-359.711,100.503-359.59,99.819-359.425,98.966 M-358.893,95.499
			c-0.213,0-0.453-0.008-0.729-0.027c-0.278-0.02-0.453-0.027-0.528-0.027c-0.444,0-0.806,0.092-1.086,0.284
			c-0.278,0.185-0.522,0.5-0.728,0.934c-0.252,0.557-0.472,1.261-0.654,2.114c-0.184,0.854-0.274,1.618-0.274,2.302
			c0,0.208,0.03,0.354,0.091,0.45c0.059,0.096,0.149,0.143,0.271,0.143c0.48,0,1.138-0.626,1.981-1.891
			C-359.703,98.52-359.152,97.094-358.893,95.499"/>
		<path fill="#C11E1E" d="M-345.262,94.281c0.635,0,1.107,0.204,1.43,0.611c0.319,0.408,0.477,1.007,0.477,1.807
			c0,0.792-0.123,1.549-0.367,2.283c-0.244,0.734-0.59,1.383-1.037,1.952c-0.521,0.646-1.126,1.161-1.816,1.564
			c-0.691,0.396-1.326,0.596-1.904,0.596c-0.625,0-1.094-0.192-1.404-0.584c-0.315-0.392-0.473-0.98-0.473-1.776
			c0-0.969,0.164-1.883,0.499-2.752c0.331-0.876,0.784-1.583,1.362-2.137c0.52-0.477,1.07-0.857,1.652-1.138
			C-346.261,94.423-345.732,94.281-345.262,94.281 M-345.232,97.294c0-0.68-0.107-1.191-0.315-1.538
			c-0.214-0.342-0.522-0.519-0.933-0.519c-0.618,0-1.113,0.446-1.48,1.322c-0.369,0.88-0.555,2.068-0.555,3.575
			c0,0.646,0.103,1.138,0.313,1.476c0.207,0.331,0.511,0.5,0.904,0.5c0.613,0,1.113-0.438,1.496-1.322
			C-345.421,99.911-345.232,98.747-345.232,97.294"/>
		<path fill="#C11E1E" d="M-334.576,89.634c-0.323-0.177-0.631-0.308-0.926-0.396s-0.571-0.138-0.823-0.138
			c-0.571,0-1.015,0.311-1.329,0.934c-0.316,0.615-0.688,2.222-1.117,4.805c0.306,0.023,0.578,0.046,0.818,0.054
			c0.242,0.016,0.429,0.023,0.558,0.023c0.45,0,0.761-0.023,0.945-0.069c0.181-0.042,0.335-0.108,0.462-0.204l0.121,0.219
			c-0.323,0.346-0.688,0.588-1.098,0.73c-0.41,0.146-0.984,0.215-1.721,0.215h-0.205c-0.027,0.153-0.06,0.392-0.102,0.707
			c-0.669,5.073-1.473,8.356-2.4,9.832c-0.671,1.061-1.551,1.902-2.65,2.517c-1.098,0.611-2.258,0.919-3.486,0.919
			c-0.563,0-1.013-0.096-1.344-0.3c-0.334-0.192-0.499-0.469-0.499-0.807c0-0.177,0.036-0.346,0.104-0.507
			c0.064-0.162,0.168-0.308,0.297-0.438c0.338,0.346,0.773,0.615,1.295,0.815c0.523,0.192,1.074,0.292,1.653,0.292
			c0.776,0,1.46-0.208,2.054-0.626c0.595-0.415,1.06-1.011,1.395-1.775c0.491-1.146,1.074-4.163,1.746-9.044l0.061-0.438
			l0.156-1.222c-0.33,0-0.63,0.027-0.9,0.077c-0.275,0.046-0.531,0.126-0.775,0.23l-0.104-0.177c0.355-0.354,0.683-0.623,0.98-0.784
			c0.296-0.154,0.619-0.25,0.965-0.273c0.288-1.957,0.945-3.578,1.979-4.877c1.036-1.299,2.11-1.953,3.221-1.953
			c0.31,0,0.55,0.077,0.727,0.215c0.179,0.138,0.269,0.323,0.269,0.569c0,0.166-0.028,0.323-0.078,0.461
			C-334.385,89.361-334.467,89.495-334.576,89.634"/>
		<path fill="#C11E1E" d="M-331.965,103.021l0.129-0.396l1.563-0.308c0.423-2.099,0.758-4.032,1.005-5.804
			c0.248-1.776,0.417-3.397,0.504-4.874l-1.646-0.308l0.158-0.4c0.549,0.046,1.063,0.081,1.533,0.1
			c0.469,0.023,0.886,0.031,1.245,0.031c0.421,0,1.09-0.035,1.999-0.1c0.912-0.069,1.61-0.104,2.093-0.104
			c1.468,0,2.567,0.357,3.292,1.08c0.729,0.719,1.09,1.814,1.09,3.282c0,1.161-0.217,2.268-0.643,3.298
			c-0.428,1.038-1.033,1.922-1.814,2.664c-0.691,0.649-1.475,1.119-2.342,1.411c-0.869,0.284-1.959,0.427-3.273,0.427
			c-0.182,0-0.555-0.016-1.129-0.042c-0.575-0.031-1.056-0.046-1.445-0.046c-0.225,0-0.512,0.007-0.865,0.023
			C-330.867,102.971-331.352,102.994-331.965,103.021 M-328.123,102.167c0.313,0.065,0.645,0.119,0.984,0.158
			c0.342,0.039,0.691,0.054,1.051,0.054c1.699,0,2.963-0.534,3.79-1.606c0.826-1.072,1.243-2.702,1.243-4.889
			c0-1.422-0.308-2.506-0.916-3.248c-0.611-0.746-1.502-1.115-2.666-1.115c-0.256,0-0.538,0.015-0.854,0.058
			c-0.318,0.031-0.693,0.092-1.126,0.177c-0.375,1.595-0.685,3.267-0.937,5.02C-327.801,98.52-327.994,100.319-328.123,102.167"/>
		<path fill="#C11E1E" d="M-312.14,96.802c-0.099-0.196-0.2-0.342-0.304-0.426c-0.102-0.088-0.215-0.131-0.346-0.131
			c-0.492,0-1.041,0.607-1.656,1.814c-0.613,1.207-1.048,2.675-1.303,4.397c-0.252,0.092-0.587,0.223-1,0.392
			c-0.409,0.166-0.684,0.277-0.822,0.334c0.318-1.518,0.57-2.91,0.759-4.186c0.19-1.276,0.284-2.129,0.284-2.556
			c0-0.157-0.024-0.276-0.07-0.357c-0.049-0.084-0.115-0.126-0.21-0.126c-0.079,0-0.204,0.065-0.376,0.2
			c-0.17,0.134-0.363,0.315-0.579,0.542l-0.28-0.258c0.638-0.695,1.201-1.218,1.689-1.576c0.484-0.35,0.893-0.526,1.22-0.526
			c0.181,0,0.31,0.062,0.392,0.181c0.079,0.123,0.119,0.315,0.119,0.58c0,0.234-0.043,0.661-0.134,1.269
			c-0.091,0.611-0.208,1.288-0.357,2.033l0.034,0.019c0.657-1.272,1.291-2.271,1.906-2.998c0.609-0.722,1.117-1.083,1.526-1.083
			c0.206,0,0.37,0.084,0.491,0.246c0.127,0.162,0.189,0.385,0.189,0.654c0,0.238-0.103,0.492-0.299,0.75
			C-311.463,96.252-311.754,96.521-312.14,96.802"/>
		<path fill="#C11E1E" d="M-309.509,98.497c-0.067,0.338-0.119,0.661-0.157,0.953c-0.037,0.3-0.057,0.561-0.057,0.792
			c0,0.477,0.087,0.842,0.26,1.092c0.174,0.25,0.426,0.376,0.756,0.376c0.303,0,0.642-0.123,1.013-0.369
			c0.372-0.25,0.778-0.623,1.22-1.119l0.315,0.304c-0.622,0.792-1.299,1.43-2.035,1.914c-0.739,0.484-1.382,0.723-1.929,0.723
			c-0.48,0-0.854-0.158-1.109-0.477c-0.258-0.315-0.387-0.769-0.387-1.353c0-0.869,0.15-1.776,0.452-2.725
			c0.3-0.945,0.679-1.703,1.13-2.271c0.445-0.569,1-1.049,1.67-1.453c0.665-0.399,1.232-0.607,1.695-0.607
			c0.371,0,0.66,0.104,0.87,0.307c0.208,0.2,0.312,0.484,0.312,0.838c0,0.623-0.387,1.238-1.156,1.845
			C-307.42,97.875-308.373,98.282-309.509,98.497 M-309.414,97.982c0.624,0,1.141-0.181,1.547-0.546
			c0.409-0.369,0.609-0.826,0.609-1.376c0-0.257-0.047-0.446-0.15-0.573c-0.098-0.127-0.248-0.192-0.443-0.192
			c-0.335,0-0.639,0.23-0.906,0.692C-309.03,96.452-309.246,97.113-309.414,97.982"/>
		<path fill="#C11E1E" d="M-299.679,98.966c-0.808,1.214-1.642,2.206-2.512,2.967c-0.866,0.765-1.551,1.146-2.047,1.146
			c-0.221,0-0.39-0.108-0.503-0.323c-0.117-0.211-0.174-0.53-0.174-0.953c0-2.252,0.598-4.059,1.799-5.412
			c1.199-1.357,2.795-2.037,4.785-2.037h0.398c0.184,0,0.346,0,0.477,0c0.129-0.004,0.256-0.008,0.383-0.008
			c-0.367,1.276-0.66,2.529-0.867,3.744c-0.213,1.223-0.319,2.152-0.319,2.802c0,0.181,0.023,0.315,0.063,0.403
			c0.039,0.084,0.102,0.127,0.188,0.127c0.071,0,0.146-0.035,0.232-0.104c0.087-0.073,0.252-0.238,0.496-0.5l0.304,0.261
			c-0.51,0.619-0.996,1.107-1.469,1.465c-0.473,0.354-0.848,0.534-1.126,0.534c-0.185,0-0.331-0.073-0.433-0.223
			c-0.104-0.15-0.153-0.369-0.153-0.649c0-0.277,0.038-0.669,0.113-1.188C-299.967,100.503-299.848,99.819-299.679,98.966
			 M-299.037,95.499c-0.197,0-0.445-0.012-0.746-0.035c-0.297-0.027-0.499-0.042-0.604-0.042c-0.456,0-0.831,0.1-1.112,0.3
			c-0.289,0.2-0.533,0.523-0.738,0.977c-0.246,0.565-0.459,1.268-0.641,2.11c-0.178,0.842-0.269,1.583-0.269,2.218
			c0,0.215,0.028,0.377,0.087,0.484s0.146,0.162,0.257,0.162c0.464,0,1.124-0.626,1.987-1.887
			C-299.959,98.528-299.363,97.102-299.037,95.499"/>
		<path fill="#C11E1E" d="M-290.688,103.178c0.322-1.476,0.579-2.836,0.771-4.097c0.191-1.253,0.288-2.095,0.288-2.533
			c0-0.25-0.021-0.411-0.06-0.5c-0.041-0.089-0.115-0.127-0.221-0.127c-0.178,0-0.451,0.185-0.826,0.546
			c-0.369,0.373-0.748,0.849-1.135,1.43c-0.465,0.676-0.826,1.372-1.078,2.083c-0.255,0.715-0.436,1.522-0.551,2.421
			c-0.306,0.115-0.756,0.308-1.338,0.569c-0.217,0.088-0.379,0.162-0.484,0.2c0.319-1.507,0.57-2.898,0.764-4.174
			s0.287-2.129,0.287-2.56c0-0.162-0.022-0.285-0.078-0.381c-0.052-0.096-0.123-0.134-0.209-0.134c-0.076,0-0.193,0.065-0.357,0.2
			c-0.166,0.138-0.361,0.331-0.598,0.577l-0.281-0.261c0.657-0.719,1.229-1.253,1.713-1.607s0.881-0.53,1.197-0.53
			c0.176,0,0.303,0.065,0.384,0.192c0.089,0.13,0.127,0.33,0.127,0.607c0,0.231-0.038,0.638-0.127,1.23
			c-0.081,0.584-0.204,1.303-0.365,2.148c0.894-1.261,1.765-2.271,2.61-3.032c0.846-0.765,1.498-1.146,1.967-1.146
			c0.174,0,0.301,0.065,0.387,0.192c0.083,0.13,0.121,0.33,0.121,0.607c0,0.208-0.027,0.523-0.082,0.938
			c-0.057,0.407-0.186,1.245-0.391,2.495c0.875-1.28,1.737-2.303,2.591-3.071c0.853-0.772,1.522-1.161,2.01-1.161
			c0.214,0,0.367,0.058,0.458,0.169c0.094,0.108,0.142,0.3,0.142,0.558c0,0.142-0.115,0.849-0.334,2.122l-0.123,0.696
			c-0.149,0.849-0.26,1.529-0.331,2.052c-0.07,0.515-0.105,0.892-0.105,1.13c0,0.115,0.016,0.208,0.051,0.277
			s0.078,0.104,0.134,0.104c0.099,0,0.222-0.05,0.357-0.154c0.142-0.104,0.308-0.269,0.498-0.488l0.29,0.238
			c-0.552,0.7-1.039,1.214-1.457,1.553c-0.417,0.334-0.785,0.503-1.102,0.503c-0.213,0-0.366-0.073-0.469-0.227
			c-0.102-0.154-0.153-0.392-0.153-0.723c0-0.669,0.135-1.676,0.397-3.021c0.268-1.345,0.402-2.26,0.402-2.752
			c0-0.15-0.023-0.254-0.071-0.319c-0.046-0.065-0.117-0.096-0.218-0.096c-0.18,0-0.436,0.161-0.77,0.5
			c-0.335,0.331-0.71,0.788-1.119,1.368c-0.475,0.688-0.854,1.399-1.124,2.141c-0.272,0.742-0.462,1.572-0.567,2.487
			c-0.173,0.069-0.465,0.192-0.878,0.369C-290.156,102.959-290.472,103.094-290.688,103.178"/>
		<path fill="#C11E1E" d="M-276.906,96.095c-0.197-0.304-0.414-0.534-0.645-0.688c-0.233-0.154-0.474-0.23-0.721-0.23
			c-0.289,0-0.525,0.088-0.713,0.269c-0.189,0.177-0.283,0.399-0.283,0.668c0,0.346,0.268,0.838,0.805,1.48
			c0.135,0.146,0.232,0.265,0.301,0.35c0.346,0.423,0.594,0.8,0.743,1.13c0.149,0.334,0.226,0.665,0.226,1
			c0,0.772-0.354,1.457-1.056,2.06c-0.705,0.607-1.515,0.907-2.433,0.907c-0.422,0-0.764-0.077-1.02-0.238
			c-0.255-0.162-0.386-0.369-0.386-0.615c0-0.138,0.075-0.296,0.222-0.477c0.146-0.177,0.342-0.361,0.598-0.545
			c0.229,0.354,0.48,0.615,0.76,0.792c0.275,0.177,0.566,0.265,0.877,0.265c0.315,0,0.574-0.088,0.78-0.28
			c0.204-0.185,0.308-0.419,0.308-0.704c0-0.2-0.052-0.396-0.154-0.596c-0.104-0.2-0.326-0.5-0.674-0.903l-0.039-0.042
			c-0.814-0.992-1.224-1.818-1.224-2.476c0-0.769,0.342-1.445,1.028-2.029c0.684-0.58,1.462-0.873,2.336-0.873
			c0.379,0,0.688,0.073,0.929,0.234c0.244,0.154,0.363,0.338,0.363,0.565c0,0.165-0.087,0.346-0.259,0.534
			C-276.41,95.845-276.635,95.987-276.906,96.095"/>
		<path fill="#C11E1E" d="M-263.657,96.206c1.203,0.084,2.068,0.331,2.599,0.746s0.796,1.057,0.796,1.922
			c0,1.284-0.474,2.298-1.427,3.044c-0.953,0.753-2.256,1.123-3.912,1.123c-0.27,0-0.75-0.016-1.434-0.054
			c-0.685-0.039-1.234-0.058-1.642-0.058c-0.28,0-0.584,0.007-0.92,0.023c-0.337,0.015-0.714,0.039-1.134,0.073l0.128-0.403
			l1.564-0.308c0.423-2.095,0.754-4.024,1.003-5.8c0.25-1.772,0.412-3.397,0.5-4.874l-1.645-0.308l0.157-0.4
			c0.438,0.046,0.838,0.077,1.188,0.1s0.681,0.031,0.999,0.031c0.627,0,1.38-0.031,2.271-0.092c0.893-0.062,1.465-0.092,1.73-0.092
			c0.856,0,1.51,0.185,1.952,0.554c0.435,0.369,0.653,0.915,0.653,1.629c0,0.838-0.292,1.526-0.88,2.068
			C-261.697,95.668-262.542,96.025-263.657,96.206 M-266.894,102.187c0.381,0.092,0.73,0.162,1.058,0.2
			c0.322,0.046,0.626,0.069,0.906,0.069c0.804,0,1.441-0.303,1.918-0.915c0.477-0.607,0.716-1.43,0.716-2.475
			c0-0.823-0.216-1.43-0.639-1.826c-0.423-0.396-1.068-0.596-1.94-0.596c-0.25,0-0.619,0.023-1.104,0.065
			c-0.146,0.012-0.25,0.02-0.315,0.027c-0.131,0.861-0.25,1.745-0.346,2.648C-266.739,100.292-266.824,101.226-266.894,102.187
			 M-266.187,95.976c0.154,0.023,0.312,0.039,0.47,0.05c0.157,0.012,0.311,0.016,0.461,0.016c1.011,0,1.775-0.234,2.303-0.711
			c0.522-0.469,0.787-1.153,0.787-2.053c0-0.592-0.169-1.03-0.507-1.33c-0.331-0.3-0.83-0.446-1.491-0.446
			c-0.22,0-0.435,0.016-0.646,0.054c-0.211,0.038-0.418,0.096-0.63,0.177c-0.143,0.676-0.276,1.368-0.403,2.072
			C-265.963,94.507-266.078,95.23-266.187,95.976"/>
		<path fill="#C11E1E" d="M-252.775,96.802c-0.101-0.196-0.204-0.342-0.304-0.426c-0.101-0.088-0.216-0.131-0.347-0.131
			c-0.491,0-1.045,0.607-1.66,1.814c-0.611,1.207-1.045,2.675-1.299,4.397c-0.254,0.092-0.588,0.223-1,0.392
			c-0.411,0.166-0.684,0.277-0.822,0.334c0.315-1.518,0.569-2.91,0.762-4.186c0.184-1.276,0.28-2.129,0.28-2.556
			c0-0.157-0.023-0.276-0.073-0.357c-0.046-0.084-0.111-0.126-0.207-0.126c-0.081,0-0.204,0.065-0.377,0.2
			c-0.169,0.134-0.361,0.315-0.577,0.542l-0.28-0.258c0.635-0.695,1.199-1.218,1.688-1.576c0.484-0.35,0.892-0.526,1.223-0.526
			c0.177,0,0.307,0.062,0.388,0.181c0.081,0.123,0.119,0.315,0.119,0.58c0,0.234-0.038,0.661-0.131,1.269
			c-0.092,0.611-0.207,1.288-0.361,2.033l0.039,0.019c0.657-1.272,1.291-2.271,1.906-2.998c0.607-0.722,1.114-1.083,1.525-1.083
			c0.204,0,0.369,0.084,0.492,0.246c0.127,0.162,0.188,0.385,0.188,0.654c0,0.238-0.1,0.492-0.3,0.75
			C-252.1,96.252-252.392,96.521-252.775,96.802"/>
		<path fill="#C11E1E" d="M-247.922,100.549l0.308,0.254c-0.538,0.723-1.061,1.292-1.557,1.699
			c-0.495,0.407-0.903,0.615-1.226,0.615c-0.177,0-0.312-0.062-0.393-0.184c-0.084-0.123-0.131-0.308-0.131-0.569
			c0-0.646,0.154-1.653,0.462-3.029c0.308-1.372,0.461-2.345,0.461-2.914c0-0.107-0.016-0.185-0.05-0.246
			c-0.035-0.054-0.081-0.084-0.146-0.084c-0.096,0-0.219,0.058-0.361,0.162c-0.142,0.107-0.318,0.276-0.534,0.5l-0.284-0.277
			c0.576-0.68,1.107-1.214,1.591-1.599c0.484-0.384,0.861-0.577,1.131-0.577c0.185,0,0.314,0.054,0.403,0.169
			c0.088,0.108,0.127,0.277,0.127,0.5c0,0.215-0.097,0.915-0.292,2.091c-0.069,0.399-0.123,0.711-0.162,0.945
			c-0.13,0.765-0.23,1.403-0.308,1.91c-0.068,0.511-0.107,0.819-0.107,0.919c0,0.13,0.016,0.23,0.054,0.292
			c0.047,0.062,0.108,0.092,0.196,0.092c0.089,0,0.196-0.054,0.334-0.166C-248.268,100.938-248.106,100.772-247.922,100.549
			 M-248.482,90.625c0.242,0,0.445,0.081,0.607,0.242c0.161,0.161,0.238,0.361,0.238,0.596c0,0.396-0.111,0.73-0.339,1.007
			c-0.227,0.269-0.499,0.407-0.822,0.407c-0.246,0-0.449-0.084-0.604-0.253c-0.153-0.169-0.234-0.384-0.234-0.646
			c0-0.354,0.119-0.669,0.354-0.942C-249.052,90.764-248.782,90.625-248.482,90.625"/>
		<path fill="#C11E1E" d="M-245.885,103.178c0.315-1.506,0.569-2.906,0.758-4.182s0.284-2.129,0.284-2.56
			c0-0.154-0.027-0.269-0.073-0.354c-0.046-0.084-0.115-0.13-0.207-0.13c-0.085,0-0.208,0.069-0.377,0.204
			c-0.169,0.134-0.361,0.312-0.584,0.542l-0.277-0.261c0.653-0.719,1.227-1.253,1.707-1.607s0.884-0.53,1.203-0.53
			c0.173,0,0.304,0.065,0.388,0.192c0.081,0.13,0.123,0.33,0.123,0.607c0,0.25-0.046,0.692-0.138,1.322
			c-0.093,0.63-0.224,1.372-0.393,2.222c0.915-1.253,1.853-2.291,2.821-3.109c0.965-0.823,1.676-1.234,2.129-1.234
			c0.177,0,0.312,0.046,0.404,0.138c0.088,0.096,0.134,0.231,0.134,0.419c0,0.484-0.153,1.449-0.449,2.895
			c-0.304,1.453-0.454,2.541-0.454,3.274c0,0.115,0.02,0.208,0.058,0.277c0.039,0.069,0.081,0.104,0.139,0.104
			c0.101,0,0.216-0.05,0.361-0.154c0.139-0.104,0.3-0.269,0.492-0.488l0.288,0.238c-0.55,0.7-1.034,1.214-1.449,1.553
			c-0.423,0.334-0.791,0.503-1.106,0.503c-0.208,0-0.369-0.073-0.469-0.227c-0.104-0.154-0.154-0.392-0.154-0.723
			c0-0.649,0.139-1.653,0.407-3.013c0.273-1.353,0.412-2.299,0.412-2.837c0-0.115-0.02-0.211-0.065-0.276
			c-0.043-0.069-0.104-0.104-0.185-0.104c-0.192,0-0.477,0.181-0.861,0.534c-0.381,0.361-0.8,0.838-1.253,1.449
			c-0.508,0.688-0.903,1.403-1.184,2.137c-0.284,0.734-0.469,1.541-0.562,2.417c-0.269,0.092-0.546,0.2-0.838,0.319
			C-245.139,102.855-245.484,103.001-245.885,103.178"/>
		<path fill="#C11E1E" d="M-231.109,98.966c-0.808,1.214-1.646,2.206-2.514,2.967c-0.865,0.765-1.55,1.146-2.045,1.146
			c-0.224,0-0.393-0.108-0.504-0.323c-0.119-0.211-0.173-0.53-0.173-0.953c0-2.252,0.6-4.059,1.799-5.412
			c1.199-1.357,2.794-2.037,4.785-2.037h0.396c0.185,0,0.347,0,0.477,0c0.131-0.004,0.258-0.008,0.385-0.008
			c-0.419,1.292-0.769,2.991-1.049,5.101c-0.281,2.11-0.474,3.417-0.573,3.92c-0.369,1.987-1.126,3.555-2.268,4.693
			s-2.498,1.703-4.074,1.703c-0.488,0-0.876-0.088-1.157-0.265c-0.284-0.185-0.426-0.427-0.426-0.738c0-0.154,0.03-0.3,0.092-0.438
			c0.062-0.139,0.15-0.277,0.276-0.416c0.357,0.269,0.762,0.484,1.211,0.638c0.45,0.154,0.896,0.234,1.342,0.234
			c1.045,0,1.829-0.515,2.352-1.549C-232.255,106.199-231.702,103.447-231.109,98.966 M-230.472,95.499
			c-0.192,0-0.442-0.012-0.742-0.035c-0.3-0.027-0.499-0.042-0.604-0.042c-0.461,0-0.83,0.1-1.114,0.3
			c-0.288,0.2-0.53,0.523-0.738,0.977c-0.246,0.565-0.461,1.268-0.642,2.11c-0.177,0.842-0.265,1.583-0.265,2.218
			c0,0.215,0.022,0.377,0.084,0.484s0.146,0.162,0.254,0.162c0.469,0,1.13-0.626,1.991-1.887
			C-231.391,98.528-230.795,97.102-230.472,95.499"/>
		<path fill="#C11E1E" d="M-223.915,100.549l0.308,0.254c-0.538,0.723-1.057,1.292-1.553,1.699s-0.907,0.615-1.229,0.615
			c-0.177,0-0.308-0.062-0.393-0.184c-0.084-0.123-0.127-0.308-0.127-0.569c0-0.646,0.154-1.653,0.462-3.029
			c0.308-1.372,0.461-2.345,0.461-2.914c0-0.107-0.02-0.185-0.05-0.246c-0.039-0.054-0.085-0.084-0.146-0.084
			c-0.1,0-0.223,0.058-0.361,0.162c-0.146,0.107-0.322,0.276-0.534,0.5l-0.288-0.277c0.58-0.68,1.107-1.214,1.591-1.599
			c0.484-0.384,0.861-0.577,1.135-0.577c0.181,0,0.314,0.054,0.403,0.169c0.084,0.108,0.127,0.277,0.127,0.5
			c0,0.215-0.097,0.915-0.296,2.091c-0.069,0.399-0.123,0.711-0.162,0.945c-0.131,0.765-0.23,1.403-0.308,1.91
			c-0.072,0.511-0.107,0.819-0.107,0.919c0,0.13,0.02,0.23,0.058,0.292c0.043,0.062,0.107,0.092,0.196,0.092
			c0.085,0,0.192-0.054,0.331-0.166C-224.261,100.938-224.103,100.772-223.915,100.549 M-224.472,90.625
			c0.242,0,0.441,0.081,0.604,0.242c0.161,0.161,0.242,0.361,0.242,0.596c0,0.396-0.112,0.73-0.339,1.007
			c-0.227,0.269-0.499,0.407-0.822,0.407c-0.25,0-0.449-0.084-0.604-0.253c-0.153-0.169-0.234-0.384-0.234-0.646
			c0-0.354,0.119-0.669,0.35-0.942S-224.775,90.625-224.472,90.625"/>
		<path fill="#C11E1E" d="M-221.878,103.178c0.315-1.506,0.569-2.906,0.762-4.182c0.188-1.276,0.284-2.129,0.284-2.56
			c0-0.154-0.027-0.269-0.073-0.354c-0.05-0.084-0.119-0.13-0.211-0.13c-0.081,0-0.208,0.069-0.377,0.204
			c-0.169,0.134-0.365,0.312-0.58,0.542l-0.277-0.261c0.653-0.719,1.227-1.253,1.703-1.607c0.484-0.354,0.884-0.53,1.207-0.53
			c0.173,0,0.3,0.065,0.384,0.192c0.085,0.13,0.127,0.33,0.127,0.607c0,0.25-0.05,0.692-0.139,1.322
			c-0.096,0.63-0.223,1.372-0.396,2.222c0.915-1.253,1.853-2.291,2.821-3.109c0.969-0.823,1.676-1.234,2.129-1.234
			c0.181,0,0.315,0.046,0.408,0.138c0.088,0.096,0.13,0.231,0.13,0.419c0,0.484-0.149,1.449-0.445,2.895
			c-0.308,1.453-0.454,2.541-0.454,3.274c0,0.115,0.02,0.208,0.055,0.277c0.038,0.069,0.084,0.104,0.142,0.104
			c0.097,0,0.216-0.05,0.357-0.154c0.139-0.104,0.304-0.269,0.496-0.488l0.288,0.238c-0.554,0.7-1.038,1.214-1.457,1.553
			c-0.419,0.334-0.783,0.503-1.099,0.503c-0.212,0-0.369-0.073-0.473-0.227c-0.101-0.154-0.154-0.392-0.154-0.723
			c0-0.649,0.139-1.653,0.411-3.013c0.273-1.353,0.411-2.299,0.411-2.837c0-0.115-0.022-0.211-0.064-0.276
			c-0.043-0.069-0.104-0.104-0.188-0.104c-0.188,0-0.477,0.181-0.861,0.534c-0.377,0.361-0.796,0.838-1.249,1.449
			c-0.508,0.688-0.903,1.403-1.184,2.137c-0.284,0.734-0.469,1.541-0.565,2.417c-0.265,0.092-0.542,0.2-0.83,0.319
			C-221.132,102.855-221.478,103.001-221.878,103.178"/>
		<path fill="#C11E1E" d="M-207.103,98.966c-0.808,1.214-1.642,2.206-2.51,2.967c-0.865,0.765-1.55,1.146-2.049,1.146
			c-0.22,0-0.389-0.108-0.5-0.323c-0.123-0.211-0.177-0.53-0.177-0.953c0-2.252,0.6-4.059,1.799-5.412
			c1.199-1.357,2.798-2.037,4.789-2.037h0.396c0.185,0,0.347,0,0.477,0c0.127-0.004,0.258-0.008,0.381-0.008
			c-0.415,1.292-0.769,2.991-1.045,5.101c-0.285,2.11-0.474,3.417-0.577,3.92c-0.369,1.987-1.122,3.555-2.268,4.693
			c-1.138,1.138-2.498,1.703-4.074,1.703c-0.484,0-0.872-0.088-1.153-0.265c-0.284-0.185-0.427-0.427-0.427-0.738
			c0-0.154,0.031-0.3,0.089-0.438c0.062-0.139,0.153-0.277,0.276-0.416c0.361,0.269,0.766,0.484,1.215,0.638
			c0.446,0.154,0.896,0.234,1.338,0.234c1.045,0,1.829-0.515,2.352-1.549C-208.248,106.199-207.695,103.447-207.103,98.966
			 M-206.461,95.499c-0.196,0-0.442-0.012-0.742-0.035c-0.3-0.027-0.499-0.042-0.607-0.042c-0.457,0-0.83,0.1-1.114,0.3
			c-0.284,0.2-0.53,0.523-0.738,0.977c-0.246,0.565-0.457,1.268-0.638,2.11c-0.177,0.842-0.27,1.583-0.27,2.218
			c0,0.215,0.027,0.377,0.085,0.484c0.062,0.107,0.146,0.162,0.258,0.162c0.465,0,1.126-0.626,1.987-1.887
			C-207.38,98.528-206.788,97.102-206.461,95.499"/>
		<path fill="#C11E1E" d="M-197.105,90.933c0.169,0.016,0.403,0.031,0.719,0.046c0.949,0.069,1.603,0.104,1.948,0.104
			c0.342,0,0.995-0.034,1.952-0.104c0.304-0.016,0.542-0.031,0.712-0.046l-0.131,0.4l-1.564,0.308
			c-0.169,0.761-0.323,1.537-0.465,2.321c-0.146,0.792-0.277,1.591-0.393,2.414h5.835c0.127-0.977,0.23-1.845,0.308-2.606
			c0.072-0.761,0.126-1.468,0.161-2.129l-1.614-0.308l0.131-0.4c0.61,0.054,1.134,0.088,1.564,0.112
			c0.434,0.027,0.795,0.038,1.087,0.038c0.289,0,0.646-0.011,1.08-0.038c0.427-0.023,0.961-0.058,1.596-0.112l-0.131,0.4
			l-1.561,0.308c-0.411,1.976-0.742,3.863-0.991,5.654c-0.25,1.791-0.419,3.467-0.5,5.023l1.618,0.308l-0.15,0.399
			c-0.461-0.03-0.914-0.054-1.356-0.069c-0.435-0.016-0.88-0.023-1.311-0.023c-0.562,0-1.038,0.007-1.438,0.023
			c-0.403,0.015-0.814,0.039-1.219,0.069l0.146-0.399l1.564-0.308c0.157-0.765,0.314-1.591,0.473-2.483
			c0.153-0.888,0.308-1.849,0.457-2.883h-5.819c-0.169,1.107-0.3,2.099-0.392,2.959c-0.085,0.865-0.15,1.668-0.188,2.406
			l1.638,0.308l-0.15,0.399c-0.415-0.03-0.826-0.054-1.229-0.069c-0.407-0.016-0.888-0.023-1.438-0.023
			c-0.4,0-0.83,0.007-1.28,0.023c-0.449,0.015-0.911,0.039-1.38,0.069l0.131-0.399l1.561-0.308c0.423-2.091,0.753-4.021,1.003-5.796
			c0.25-1.776,0.419-3.398,0.504-4.881l-1.646-0.308L-197.105,90.933z"/>
		<path fill="#C11E1E" d="M-178.884,98.966c-0.803,1.214-1.637,2.206-2.506,2.967c-0.868,0.765-1.553,1.146-2.049,1.146
			c-0.219,0-0.388-0.108-0.503-0.323c-0.119-0.211-0.173-0.53-0.173-0.953c0-2.252,0.596-4.059,1.795-5.412
			c1.203-1.357,2.798-2.037,4.789-2.037h0.399c0.185,0,0.346,0,0.473,0c0.131-0.004,0.258-0.008,0.381-0.008
			c-0.361,1.276-0.653,2.529-0.861,3.744c-0.215,1.223-0.323,2.152-0.323,2.802c0,0.181,0.023,0.315,0.062,0.403
			c0.043,0.084,0.108,0.127,0.192,0.127c0.069,0,0.146-0.035,0.23-0.104c0.089-0.073,0.254-0.238,0.5-0.5l0.304,0.261
			c-0.512,0.619-0.999,1.107-1.472,1.465c-0.47,0.354-0.846,0.534-1.123,0.534c-0.188,0-0.33-0.073-0.438-0.223
			c-0.101-0.15-0.15-0.369-0.15-0.649c0-0.277,0.038-0.669,0.111-1.188C-179.168,100.503-179.053,99.819-178.884,98.966
			 M-178.238,95.499c-0.199,0-0.445-0.012-0.745-0.035c-0.3-0.027-0.5-0.042-0.607-0.042c-0.453,0-0.83,0.1-1.114,0.3
			c-0.285,0.2-0.53,0.523-0.734,0.977c-0.25,0.565-0.461,1.268-0.642,2.11c-0.177,0.842-0.27,1.583-0.27,2.218
			c0,0.215,0.031,0.377,0.089,0.484s0.146,0.162,0.257,0.162c0.462,0,1.123-0.626,1.983-1.887
			C-179.16,98.528-178.568,97.102-178.238,95.499"/>
		<path fill="#C11E1E" d="M-172.123,98.604c0.873-1.284,1.761-2.314,2.656-3.098c0.892-0.776,1.603-1.168,2.145-1.168
			c0.284,0,0.508,0.142,0.677,0.426c0.169,0.289,0.254,0.669,0.254,1.153c0,1.011-0.174,1.972-0.523,2.879
			c-0.346,0.907-0.846,1.699-1.499,2.368c-0.588,0.615-1.245,1.099-1.976,1.445c-0.727,0.357-1.43,0.534-2.109,0.534
			c-0.15-0.019-0.262-0.027-0.327-0.027c-0.3,2.014-1.038,3.628-2.226,4.843c-1.184,1.214-2.579,1.822-4.193,1.822
			c-0.499,0-0.896-0.092-1.176-0.277s-0.423-0.442-0.423-0.765c0-0.139,0.034-0.273,0.1-0.412c0.065-0.138,0.162-0.28,0.281-0.423
			c0.38,0.285,0.791,0.504,1.233,0.657c0.446,0.158,0.88,0.235,1.318,0.235c0.846,0,1.515-0.315,2.003-0.946
			c0.483-0.626,0.899-1.737,1.229-3.321c0.354-1.653,0.638-3.259,0.846-4.835c0.211-1.58,0.315-2.66,0.315-3.24
			c0-0.166-0.016-0.288-0.055-0.373c-0.038-0.084-0.092-0.126-0.169-0.126c-0.1,0-0.242,0.073-0.43,0.219
			c-0.192,0.143-0.389,0.338-0.6,0.581l-0.262-0.258c0.604-0.688,1.153-1.214,1.645-1.591c0.492-0.377,0.885-0.569,1.177-0.569
			c0.192,0,0.338,0.069,0.435,0.215c0.1,0.139,0.149,0.354,0.149,0.646c0,0.3-0.042,0.753-0.131,1.353
			C-171.846,97.159-171.965,97.844-172.123,98.604 M-172.669,102.167c0.181,0.05,0.354,0.088,0.52,0.111
			c0.169,0.027,0.33,0.039,0.484,0.039c0.561,0,1.026-0.127,1.406-0.376c0.385-0.246,0.715-0.638,0.992-1.176
			c0.265-0.523,0.484-1.161,0.646-1.914c0.169-0.753,0.25-1.476,0.25-2.168c0-0.315-0.043-0.545-0.111-0.684
			c-0.069-0.138-0.185-0.211-0.347-0.211c-0.534,0-1.237,0.65-2.106,1.949C-171.808,99.035-172.388,100.511-172.669,102.167"/>
		<path fill="#C11E1E" d="M-162.487,98.604c0.873-1.284,1.761-2.314,2.652-3.098c0.892-0.776,1.606-1.168,2.145-1.168
			c0.284,0,0.512,0.142,0.681,0.426c0.165,0.289,0.25,0.669,0.25,1.153c0,1.011-0.17,1.972-0.523,2.879
			c-0.346,0.907-0.845,1.699-1.495,2.368c-0.588,0.615-1.249,1.099-1.976,1.445c-0.726,0.357-1.434,0.534-2.113,0.534
			c-0.15-0.019-0.258-0.027-0.327-0.027c-0.3,2.014-1.038,3.628-2.222,4.843c-1.184,1.214-2.583,1.822-4.193,1.822
			c-0.503,0-0.896-0.092-1.176-0.277c-0.284-0.185-0.427-0.442-0.427-0.765c0-0.139,0.038-0.273,0.1-0.412
			c0.069-0.138,0.162-0.28,0.285-0.423c0.376,0.285,0.791,0.504,1.229,0.657c0.446,0.158,0.884,0.235,1.318,0.235
			c0.85,0,1.519-0.315,2.003-0.946c0.484-0.626,0.899-1.737,1.233-3.321c0.35-1.653,0.634-3.259,0.846-4.835
			c0.211-1.58,0.315-2.66,0.315-3.24c0-0.166-0.02-0.288-0.058-0.373c-0.039-0.084-0.093-0.126-0.17-0.126
			c-0.096,0-0.242,0.073-0.43,0.219c-0.188,0.143-0.385,0.338-0.6,0.581l-0.258-0.258c0.604-0.688,1.149-1.214,1.642-1.591
			c0.491-0.377,0.884-0.569,1.176-0.569c0.192,0,0.338,0.069,0.438,0.215c0.096,0.139,0.146,0.354,0.146,0.646
			c0,0.3-0.038,0.753-0.127,1.353C-162.214,97.159-162.333,97.844-162.487,98.604 M-163.036,102.167
			c0.181,0.05,0.357,0.088,0.519,0.111c0.169,0.027,0.33,0.039,0.484,0.039c0.561,0,1.03-0.127,1.41-0.376
			c0.381-0.246,0.711-0.638,0.992-1.176c0.265-0.523,0.48-1.161,0.646-1.914s0.242-1.476,0.242-2.168
			c0-0.315-0.035-0.545-0.104-0.684c-0.073-0.138-0.188-0.211-0.351-0.211c-0.53,0-1.233,0.65-2.102,1.949
			C-162.172,99.035-162.752,100.511-163.036,102.167"/>
		<path fill="#C11E1E" d="M-152.071,100.549l0.308,0.254c-0.538,0.723-1.061,1.292-1.557,1.699s-0.903,0.615-1.226,0.615
			c-0.177,0-0.312-0.062-0.393-0.184c-0.084-0.123-0.131-0.308-0.131-0.569c0-0.646,0.154-1.653,0.462-3.029
			c0.308-1.372,0.461-2.345,0.461-2.914c0-0.107-0.016-0.185-0.05-0.246c-0.035-0.054-0.081-0.084-0.146-0.084
			c-0.096,0-0.219,0.058-0.365,0.162c-0.138,0.107-0.314,0.276-0.522,0.5l-0.292-0.277c0.576-0.68,1.107-1.214,1.591-1.599
			c0.484-0.384,0.861-0.577,1.131-0.577c0.184,0,0.314,0.054,0.403,0.169c0.088,0.108,0.127,0.277,0.127,0.5
			c0,0.215-0.097,0.915-0.292,2.091c-0.069,0.399-0.123,0.711-0.162,0.945c-0.131,0.765-0.23,1.403-0.308,1.91
			c-0.068,0.511-0.111,0.819-0.111,0.919c0,0.13,0.02,0.23,0.058,0.292c0.047,0.062,0.108,0.092,0.196,0.092
			c0.089,0,0.196-0.054,0.334-0.166C-152.417,100.938-152.256,100.772-152.071,100.549 M-152.632,90.625
			c0.242,0,0.445,0.081,0.607,0.242c0.161,0.161,0.238,0.361,0.238,0.596c0,0.396-0.112,0.73-0.339,1.007
			c-0.227,0.269-0.499,0.407-0.822,0.407c-0.246,0-0.453-0.084-0.604-0.253c-0.153-0.169-0.234-0.384-0.234-0.646
			c0-0.354,0.119-0.669,0.354-0.942C-153.201,90.764-152.932,90.625-152.632,90.625"/>
		<path fill="#C11E1E" d="M-150.034,103.178c0.315-1.506,0.569-2.906,0.758-4.182s0.28-2.129,0.28-2.56
			c0-0.154-0.023-0.269-0.069-0.354c-0.046-0.084-0.115-0.13-0.207-0.13c-0.085,0-0.208,0.069-0.377,0.204
			c-0.169,0.134-0.369,0.312-0.584,0.542l-0.277-0.261c0.653-0.719,1.227-1.253,1.707-1.607s0.88-0.53,1.203-0.53
			c0.173,0,0.304,0.065,0.388,0.192c0.081,0.13,0.123,0.33,0.123,0.607c0,0.25-0.046,0.692-0.139,1.322
			c-0.092,0.63-0.223,1.372-0.392,2.222c0.915-1.253,1.853-2.291,2.821-3.109c0.965-0.823,1.676-1.234,2.125-1.234
			c0.181,0,0.315,0.046,0.408,0.138c0.088,0.096,0.134,0.231,0.134,0.419c0,0.484-0.153,1.449-0.449,2.895
			c-0.304,1.453-0.454,2.541-0.454,3.274c0,0.115,0.02,0.208,0.058,0.277c0.039,0.069,0.081,0.104,0.139,0.104
			c0.101,0,0.216-0.05,0.361-0.154c0.139-0.104,0.3-0.269,0.492-0.488l0.288,0.238c-0.55,0.7-1.034,1.214-1.457,1.553
			c-0.415,0.334-0.783,0.503-1.099,0.503c-0.208,0-0.369-0.073-0.469-0.227c-0.104-0.154-0.154-0.392-0.154-0.723
			c0-0.649,0.139-1.653,0.407-3.013c0.273-1.353,0.412-2.299,0.412-2.837c0-0.115-0.02-0.211-0.065-0.276
			c-0.043-0.069-0.104-0.104-0.185-0.104c-0.196,0-0.477,0.181-0.861,0.534c-0.385,0.361-0.8,0.838-1.253,1.449
			c-0.508,0.688-0.903,1.403-1.184,2.137c-0.284,0.734-0.469,1.541-0.562,2.417c-0.269,0.092-0.546,0.2-0.838,0.319
			C-149.288,102.855-149.634,103.001-150.034,103.178"/>
		<path fill="#C11E1E" d="M-138.369,98.497c-0.064,0.338-0.119,0.661-0.157,0.953c-0.034,0.3-0.054,0.561-0.054,0.792
			c0,0.477,0.085,0.842,0.262,1.092c0.169,0.25,0.423,0.376,0.753,0.376c0.304,0,0.642-0.123,1.011-0.369
			c0.373-0.25,0.78-0.623,1.219-1.119l0.315,0.304c-0.619,0.792-1.3,1.43-2.033,1.914c-0.742,0.484-1.38,0.723-1.926,0.723
			c-0.484,0-0.857-0.158-1.115-0.477c-0.253-0.315-0.384-0.769-0.384-1.353c0-0.869,0.149-1.776,0.453-2.725
			c0.3-0.945,0.677-1.703,1.13-2.271c0.446-0.569,1-1.049,1.668-1.453c0.665-0.399,1.23-0.607,1.699-0.607
			c0.369,0,0.661,0.104,0.869,0.307c0.207,0.2,0.307,0.484,0.307,0.838c0,0.623-0.384,1.238-1.152,1.845
			C-136.277,97.875-137.23,98.282-138.369,98.497 M-138.272,97.982c0.622,0,1.138-0.181,1.545-0.546
			c0.407-0.369,0.611-0.826,0.611-1.376c0-0.257-0.05-0.446-0.15-0.573c-0.1-0.127-0.246-0.192-0.445-0.192
			c-0.335,0-0.639,0.23-0.907,0.692C-137.889,96.452-138.104,97.113-138.272,97.982"/>
		<path fill="#C11E1E" d="M-129.264,96.095c-0.195-0.304-0.415-0.534-0.646-0.688s-0.473-0.23-0.723-0.23
			c-0.284,0-0.522,0.088-0.707,0.269c-0.192,0.177-0.284,0.399-0.284,0.668c0,0.346,0.265,0.838,0.807,1.48
			c0.131,0.146,0.23,0.265,0.3,0.35c0.347,0.423,0.592,0.8,0.742,1.13c0.149,0.334,0.223,0.665,0.223,1
			c0,0.772-0.354,1.457-1.053,2.06c-0.703,0.607-1.519,0.907-2.434,0.907c-0.423,0-0.761-0.077-1.021-0.238
			c-0.254-0.162-0.385-0.369-0.385-0.615c0-0.138,0.077-0.296,0.223-0.477c0.146-0.177,0.343-0.361,0.6-0.545
			c0.227,0.354,0.477,0.615,0.758,0.792c0.272,0.177,0.564,0.265,0.88,0.265c0.312,0,0.572-0.088,0.776-0.28
			c0.207-0.185,0.308-0.419,0.308-0.704c0-0.2-0.054-0.396-0.154-0.596c-0.1-0.2-0.326-0.5-0.672-0.903l-0.043-0.042
			c-0.814-0.992-1.222-1.818-1.222-2.476c0-0.769,0.346-1.445,1.029-2.029c0.685-0.58,1.461-0.873,2.337-0.873
			c0.377,0,0.688,0.073,0.931,0.234c0.242,0.154,0.361,0.338,0.361,0.565c0,0.165-0.089,0.346-0.262,0.534
			C-128.768,95.845-128.994,95.987-129.264,96.095"/>
		<path fill="#C11E1E" d="M-123.341,96.095c-0.195-0.304-0.411-0.534-0.646-0.688s-0.473-0.23-0.719-0.23
			c-0.288,0-0.522,0.088-0.715,0.269c-0.188,0.177-0.284,0.399-0.284,0.668c0,0.346,0.269,0.838,0.807,1.48
			c0.139,0.146,0.235,0.265,0.3,0.35c0.347,0.423,0.596,0.8,0.746,1.13c0.15,0.334,0.223,0.665,0.223,1
			c0,0.772-0.354,1.457-1.053,2.06c-0.707,0.607-1.515,0.907-2.434,0.907c-0.418,0-0.765-0.077-1.018-0.238
			c-0.258-0.162-0.385-0.369-0.385-0.615c0-0.138,0.073-0.296,0.219-0.477c0.143-0.177,0.343-0.361,0.596-0.545
			c0.23,0.354,0.484,0.615,0.762,0.792c0.276,0.177,0.568,0.265,0.876,0.265c0.315,0,0.576-0.088,0.78-0.28
			c0.204-0.185,0.308-0.419,0.308-0.704c0-0.2-0.05-0.396-0.154-0.596c-0.104-0.2-0.326-0.5-0.672-0.903l-0.039-0.042
			c-0.814-0.992-1.222-1.818-1.222-2.476c0-0.769,0.338-1.445,1.022-2.029c0.688-0.58,1.468-0.873,2.341-0.873
			c0.376,0,0.688,0.073,0.926,0.234c0.246,0.154,0.361,0.338,0.361,0.565c0,0.165-0.085,0.346-0.258,0.534
			C-122.845,95.845-123.067,95.987-123.341,96.095"/>
	</g>
	<g>
		<path fill="#FFFFFF" d="M61.281,72.008c-0.745-2.236-1.792,0.292-9.925-1.789c-8.132-2.08-13.223-8.884-13.223-8.884
			s8.566-9.101,9.389-13.757c0.33-1.866-3.826-0.37-5.323,0.378c-2.177,1.087-3.658,4.988-7.405,8.763
			c-2.917-2.375-5.526-14.008-5.526-14.008s16.381-16.979,20.774-22.158c4.393-5.178,6.517-14.279,2.05-17.568
			c-4.137-3.045-12.119,0.665-20.059,6.478c-9.203,6.739-13.88,15.166-14.415,18.974c-1.138,8.074,0.405,16.779,0.405,16.779
			s-10.016,8.97-12.925,12.37c-2.908,3.397-6.7,10.396-4.38,12.57c2.465,2.307,9.199,2.728,15.945,1.586
			c5.843-0.99,11.14-3.573,11.14-3.573s9.823,11.596,22.376,11.596C57.493,79.767,62.025,74.246,61.281,72.008z M46.333,8.249
			c2.993,5.175-8.633,17.862-16.121,25.213c-2.769,2.718-2.253,1.88-2.266,0.474c-0.057-5.974-0.316-13.279,6-21.369
			C37.643,7.834,45.722,7.191,46.333,8.249z M25.387,64.228c0,0-13.477,5.101-14.79,0.916c-1.421-4.524,8.617-12.629,8.617-12.629
			s1.42,4.014,2.743,6.484C23.291,61.484,25.387,64.228,25.387,64.228z"/>
		<path fill="#FFFFFF" d="M86.757,68.817V48.641c0-2.478,0.586-4.185,1.774-5.124c1.178-0.938,2.167-1.399,2.953-1.399
			s1.691,0.461,2.713,1.399c1.019,0.939,1.528,2.646,1.528,5.124v20.177h12.025V48.641c0-2.517,0.499-4.233,1.493-5.147
			c0.998-0.918,1.914-1.375,2.744-1.375c0.742,0,1.649,0.458,2.715,1.375c1.065,0.914,1.6,2.63,1.6,5.147v20.177h11.958V48.641
			c0-2.84-1.619-4.843-4.867-6.016c-3.239-1.169-7.039-1.754-11.405-1.754c-4.353-0.134-7.76,0.955-10.218,3.293
			c-2.549-2.338-5.976-3.5-10.286-3.5c-3.147,0.396-4.728,1.005-4.728,1.828v-1.667l-11.54,0.052v7.764v20.177H86.757z"/>
		<path fill="#FFFFFF" d="M178.957,44.762c-4.243-2.39-9.258-3.583-15.053-3.583c-5.888,0-10.937,1.193-15.153,3.583
			c-4.215,2.387-6.328,5.952-6.328,10.694c0,4.921,2.121,8.502,6.363,10.727c4.244,2.229,9.278,3.343,15.118,3.343
			c5.748,0,10.759-1.114,15.021-3.343c4.26-2.225,6.394-5.806,6.394-10.727C185.319,50.714,183.196,47.149,178.957,44.762
			 M170.158,65.314c-1.986,2.007-4.075,3.012-6.254,3.012c-2.263,0-4.406-0.994-6.394-2.985c-1.996-1.999-2.993-5.292-2.993-9.886
			c0-4.419,1.005-7.686,3.024-9.8c2.022-2.12,4.138-3.186,6.362-3.186c2.179,0,4.268,1.066,6.254,3.186
			c1.995,2.114,2.993,5.381,2.993,9.8C173.151,60.015,172.153,63.3,170.158,65.314"/>
		<path fill="#FFFFFF" d="M236.63,43.836c-4.173-1.976-9.177-2.965-15.014-2.965c-3.245,0-6.401,0.38-9.461,1.13v-1.13h-11.962
			v27.942h11.962V51.657c0.095-2.946,1.139-5.28,3.134-6.979c1.995-1.713,4.099-2.566,6.327-2.566c2.222,0,4.325,0.853,6.32,2.566
			c1.995,1.699,2.942,4.033,2.853,6.979v17.157h11.954V51.657C242.838,48.421,240.799,45.816,236.63,43.836"/>
		<path fill="#FFFFFF" d="M285.256,41.076v2.375c-2.591-1.514-5.697-2.307-9.306-2.375c-5.896,0-10.918,1.058-15.087,3.179
			c-4.177,2.12-6.262,5.767-6.262,10.941c0,5.181,2.1,8.797,6.292,10.862c4.197,2.064,9.212,3.101,15.057,3.101
			c4.766,0,8.752-0.881,11.946-2.642c2.361,1.761,6.403,2.642,12.104,2.642v-1.352c-1.761,0-2.643-0.962-2.643-2.907v-9.705V41.076
			H285.256z M269.549,45.276c1.991-1.866,4.13-2.804,6.401-2.804c2.222,0,4.325,0.938,6.32,2.804
			c1.995,1.869,2.985,5.177,2.985,9.92c0,4.744-0.99,8.033-2.985,9.868c-1.995,1.828-4.099,2.743-6.32,2.743
			c-2.271,0-4.41-0.916-6.401-2.743c-1.992-1.835-2.989-5.124-2.989-9.868C266.56,50.453,267.557,47.145,269.549,45.276"/>
	</g>
</g>
</svg>
